<?xml version="1.0" standalone="no"?>
<!DOCTYPE svg PUBLIC "-//W3C//DTD SVG 20010904//EN"
 "http://www.w3.org/TR/2001/REC-SVG-20010904/DTD/svg10.dtd">
<svg version="1.0" xmlns="http://www.w3.org/2000/svg"
 width="700.000000pt" height="700.000000pt" viewBox="0 0 700.000000 700.000000"
 preserveAspectRatio="xMidYMid meet">
<metadata>
Created by potrace 1.14, written by Peter Selinger 2001-2017
</metadata>
<g transform="translate(0.000000,700.000000) scale(0.100000,-0.100000)"
fill="#000000" stroke="none">
<path d="M1050 6990 c-129 -23 -186 -38 -279 -74 -374 -146 -648 -465 -744
-868 l-22 -93 0 -2430 c0 -1337 4 -2457 8 -2490 5 -33 17 -94 28 -135 107
-399 403 -711 799 -840 181 -58 16 -55 2655 -55 1337 0 2448 3 2470 7 282 49
516 171 703 368 174 183 289 426 322 680 13 101 12 4803 -1 4885 -5 33 -11 71
-13 85 -10 59 -49 178 -83 254 -120 264 -331 481 -583 597 -74 35 -216 84
-275 95 -22 4 -51 9 -65 12 -42 9 -4872 10 -4920 2z"/>
</g>
</svg>
